<svg width="147" height="57" viewBox="0 0 147 57" fill="none" xmlns="http://www.w3.org/2000/svg">
<path d="M7.942 15.476V42H2.622V15.476H7.942ZM20.4942 42.342C18.7715 42.342 17.2262 42.038 15.8582 41.43C14.4902 40.7967 13.4008 39.948 12.5902 38.884C11.8048 37.82 11.3742 36.642 11.2982 35.35H16.6562C16.7575 36.1607 17.1502 36.832 17.8342 37.364C18.5435 37.896 19.4175 38.162 20.4562 38.162C21.4695 38.162 22.2548 37.9593 22.8122 37.554C23.3948 37.1487 23.6862 36.6293 23.6862 35.996C23.6862 35.312 23.3315 34.8053 22.6222 34.476C21.9382 34.1213 20.8362 33.7413 19.3162 33.336C17.7455 32.956 16.4535 32.5633 15.4402 32.158C14.4522 31.7527 13.5908 31.132 12.8562 30.296C12.1468 29.46 11.7922 28.3327 11.7922 26.914C11.7922 25.7487 12.1215 24.6847 12.7802 23.722C13.4642 22.7593 14.4268 21.9993 15.6682 21.442C16.9348 20.8847 18.4168 20.606 20.1142 20.606C22.6222 20.606 24.6235 21.2393 26.1182 22.506C27.6128 23.7473 28.4362 25.432 28.5882 27.56H23.4962C23.4202 26.724 23.0655 26.0653 22.4322 25.584C21.8242 25.0773 21.0008 24.824 19.9622 24.824C18.9995 24.824 18.2522 25.0013 17.7202 25.356C17.2135 25.7107 16.9602 26.2047 16.9602 26.838C16.9602 27.5473 17.3148 28.092 18.0242 28.472C18.7335 28.8267 19.8355 29.194 21.3302 29.574C22.8502 29.954 24.1042 30.3467 25.0922 30.752C26.0802 31.1573 26.9288 31.7907 27.6382 32.652C28.3728 33.488 28.7528 34.6027 28.7782 35.996C28.7782 37.212 28.4362 38.3013 27.7522 39.264C27.0935 40.2267 26.1308 40.9867 24.8642 41.544C23.6228 42.076 22.1662 42.342 20.4942 42.342ZM37.7052 24.216C38.3892 23.1013 39.2759 22.2273 40.3652 21.594C41.4799 20.9607 42.7465 20.644 44.1652 20.644V26.23H42.7592C41.0872 26.23 39.8205 26.6227 38.9592 27.408C38.1232 28.1933 37.7052 29.5613 37.7052 31.512V42H32.3852V20.948H37.7052V24.216ZM45.6205 31.398C45.6205 29.27 46.0385 27.3827 46.8745 25.736C47.7358 24.0893 48.8885 22.8227 50.3325 21.936C51.8018 21.0493 53.4358 20.606 55.2345 20.606C56.8052 20.606 58.1732 20.9227 59.3385 21.556C60.5292 22.1893 61.4792 22.9873 62.1885 23.95V20.948H67.5465V42H62.1885V38.922C61.5045 39.91 60.5545 40.7333 59.3385 41.392C58.1478 42.0253 56.7672 42.342 55.1965 42.342C53.4232 42.342 51.8018 41.886 50.3325 40.974C48.8885 40.062 47.7358 38.7827 46.8745 37.136C46.0385 35.464 45.6205 33.5513 45.6205 31.398ZM62.1885 31.474C62.1885 30.182 61.9352 29.08 61.4285 28.168C60.9218 27.2307 60.2378 26.5213 59.3765 26.04C58.5152 25.5333 57.5905 25.28 56.6025 25.28C55.6145 25.28 54.7025 25.5207 53.8665 26.002C53.0305 26.4833 52.3465 27.1927 51.8145 28.13C51.3078 29.042 51.0545 30.1313 51.0545 31.398C51.0545 32.6647 51.3078 33.7793 51.8145 34.742C52.3465 35.6793 53.0305 36.4013 53.8665 36.908C54.7278 37.4147 55.6398 37.668 56.6025 37.668C57.5905 37.668 58.5152 37.4273 59.3765 36.946C60.2378 36.4393 60.9218 35.73 61.4285 34.818C61.9352 33.8807 62.1885 32.766 62.1885 31.474ZM91.5524 31.018C91.5524 31.778 91.5017 32.462 91.4004 33.07H76.0104C76.1371 34.59 76.6691 35.7807 77.6064 36.642C78.5437 37.5033 79.6964 37.934 81.0644 37.934C83.0404 37.934 84.4464 37.0853 85.2824 35.388H91.0204C90.4124 37.4147 89.2471 39.0867 87.5244 40.404C85.8017 41.696 83.6864 42.342 81.1784 42.342C79.1517 42.342 77.3277 41.8987 75.7064 41.012C74.1104 40.1 72.8564 38.8207 71.9444 37.174C71.0577 35.5273 70.6144 33.6273 70.6144 31.474C70.6144 29.2953 71.0577 27.3827 71.9444 25.736C72.8311 24.0893 74.0724 22.8227 75.6684 21.936C77.2644 21.0493 79.1011 20.606 81.1784 20.606C83.1797 20.606 84.9657 21.0367 86.5364 21.898C88.1324 22.7593 89.3611 23.988 90.2224 25.584C91.1091 27.1547 91.5524 28.966 91.5524 31.018ZM86.0424 29.498C86.0171 28.13 85.5231 27.0407 84.5604 26.23C83.5977 25.394 82.4197 24.976 81.0264 24.976C79.7091 24.976 78.5944 25.3813 77.6824 26.192C76.7957 26.9773 76.2511 28.0793 76.0484 29.498H86.0424ZM99.9955 13.88V42H94.6755V13.88H99.9955Z" fill="#110F31"/>
<circle cx="113" cy="36" r="6" fill="#7462E1"/>
</svg>
