<?xml version="1.0" standalone="no"?>
<!DOCTYPE svg PUBLIC "-//W3C//DTD SVG 20010904//EN"
 "http://www.w3.org/TR/2001/REC-SVG-20010904/DTD/svg10.dtd">
<svg version="1.0" xmlns="http://www.w3.org/2000/svg"
 width="888.000000pt" height="888.000000pt" viewBox="0 0 888.000000 888.000000"
 preserveAspectRatio="xMidYMid meet">
<metadata>
Created by potrace 1.14, written by Peter Selinger 2001-2017
</metadata>
<g transform="translate(0.000000,888.000000) scale(0.100000,-0.100000)"
fill="#000000" stroke="none">
<path d="M5458 6995 c-2 -1 -34 -5 -73 -9 -100 -9 -168 -18 -220 -29 -11 -2
-38 -8 -60 -12 -45 -10 -54 -12 -57 -15 -2 -1 -16 -4 -33 -6 -16 -3 -37 -7
-45 -11 -8 -3 -22 -7 -31 -9 -9 -2 -54 -16 -100 -31 -46 -15 -86 -27 -89 -28
-3 -1 -21 -8 -40 -17 -19 -8 -53 -21 -75 -29 -22 -7 -47 -19 -56 -26 -8 -7
-19 -13 -23 -13 -14 0 -161 -73 -164 -82 -2 -4 -8 -8 -14 -8 -5 0 -23 -9 -39
-21 -16 -11 -29 -17 -29 -12 0 4 -4 4 -8 -2 -9 -13 -69 -55 -78 -55 -9 0 -108
-71 -207 -149 -115 -90 -339 -318 -425 -431 -40 -52 -76 -99 -80 -105 -26 -33
-72 -107 -72 -116 0 -5 -4 -9 -8 -9 -5 0 -17 -19 -28 -41 -10 -23 -23 -47 -29
-53 -10 -10 -125 -240 -125 -249 0 -3 -8 -22 -17 -43 -9 -22 -17 -41 -18 -44
-1 -3 -7 -18 -13 -33 -7 -16 -12 -34 -12 -41 0 -7 -3 -16 -7 -20 -4 -3 -8 -12
-10 -19 -1 -7 -12 -43 -23 -82 -12 -38 -23 -78 -25 -88 -2 -10 -7 -27 -10 -37
-3 -10 -7 -27 -9 -37 -2 -10 -11 -52 -19 -93 -14 -68 -23 -122 -32 -205 -2
-16 -6 -95 -10 -174 -3 -79 -8 -148 -11 -152 -3 -5 -2 -9 3 -9 4 0 8 -37 9
-83 1 -73 8 -153 19 -227 18 -117 39 -219 60 -295 14 -49 28 -101 30 -115 3
-14 12 -41 19 -60 8 -19 29 -73 46 -120 44 -113 187 -402 210 -420 3 -3 21
-30 40 -60 101 -162 282 -370 445 -515 108 -95 333 -259 395 -288 8 -4 38 -21
65 -37 176 -104 501 -230 690 -266 11 -2 31 -6 45 -9 78 -17 132 -26 170 -30
19 -2 58 -7 85 -10 28 -3 78 -7 112 -9 35 -1 66 -5 69 -9 4 -3 14 -3 23 2 9 5
25 6 36 4 11 -2 25 -4 30 -4 21 -1 251 12 280 15 126 15 151 19 155 21 3 2 26
6 50 10 65 9 188 40 304 77 56 17 103 32 106 33 3 1 22 9 44 18 21 9 40 17 43
17 2 0 29 11 59 25 30 14 56 25 59 25 5 1 142 72 202 106 44 24 124 75 133 84
3 3 17 11 33 19 15 8 27 18 27 23 0 4 5 8 10 8 6 0 16 4 23 10 7 5 53 42 102
81 50 40 97 79 106 88 9 9 51 49 93 89 42 40 76 75 76 77 0 2 10 14 23 27 44
45 132 150 136 161 2 7 7 14 11 17 13 10 110 150 110 160 0 6 5 10 10 10 6 0
10 6 10 14 0 8 4 16 8 18 13 5 141 245 173 323 4 11 15 36 23 55 43 98 115
323 132 414 2 11 6 32 9 46 16 71 24 120 30 170 3 30 8 66 10 80 4 24 17 224
17 245 -8 205 -12 287 -16 315 -3 19 -8 57 -12 84 -3 27 -8 58 -10 70 -3 12
-9 44 -14 71 -5 28 -12 60 -15 73 -3 12 -7 30 -9 40 -2 9 -9 37 -16 62 -7 25
-14 52 -15 60 -2 8 -23 67 -46 130 -23 63 -46 130 -53 148 -6 17 -14 32 -18
32 -5 0 -8 5 -8 11 0 12 -77 169 -117 239 -31 53 -162 250 -177 266 -6 6 -20
23 -31 38 -11 15 -30 40 -43 54 -13 15 -37 44 -55 66 -34 41 -196 202 -237
235 -14 11 -32 27 -40 34 -52 48 -302 227 -316 227 -3 0 -28 15 -57 33 -194
122 -567 261 -812 302 -16 3 -41 7 -54 10 -13 2 -49 7 -80 11 -31 3 -65 8 -76
11 -21 5 -451 13 -457 8z"/>
<path d="M1122 6860 c-8 -6 -8 -4807 -1 -4815 8 -7 98 -9 105 -2 3 3 17 2 30
-3 13 -5 24 -6 24 -2 0 5 21 6 48 2 26 -3 59 -3 72 0 14 4 37 3 53 -1 17 -5
27 -4 27 3 0 7 4 7 13 -1 8 -6 17 -8 20 -4 4 3 28 6 54 5 27 -1 76 -2 111 -3
35 0 66 1 69 4 3 3 16 2 29 -3 16 -7 24 -6 24 1 0 8 4 8 14 0 8 -7 17 -8 20
-3 3 5 27 6 53 2 27 -3 63 -3 81 1 18 4 32 2 32 -3 0 -5 4 -7 10 -3 5 3 24 6
42 7 l33 1 0 2411 0 2411 -478 0 c-264 0 -482 -2 -485 -5z"/>
</g>
</svg>
